<mxfile host="app.diagrams.net" modified="2020-06-11T14:20:01.715Z" agent="5.0 (Windows NT 10.0; Win64; x64) AppleWebKit/537.36 (KHTML, like Gecko) Chrome/83.0.4103.97 Safari/537.36" etag="dHgSGKqyzqm8vwfGOn1P" version="13.2.2" type="github">
  <diagram id="MShefhGijXn1EoUvpbQ7" name="Page-1">
    <mxGraphModel dx="346" dy="183" grid="1" gridSize="10" guides="1" tooltips="1" connect="1" arrows="1" fold="1" page="1" pageScale="1" pageWidth="850" pageHeight="1100" math="0" shadow="0">
      <root>
        <mxCell id="0" />
        <mxCell id="1" parent="0" />
        <mxCell id="JFg7P7vN6lW9qgMMOl7U-22" value="&lt;font style=&quot;font-size:8px;font-family:Calibri;color:#000000;direction:ltr;letter-spacing:0px;line-height:120%;opacity:1&quot;&gt;Pressure Gauge&lt;br/&gt;0-250 psig&lt;br/&gt;&lt;/font&gt;" style="text;vsdxID=43;rotation=0.05;fillColor=none;gradientColor=none;strokeColor=none;spacingLeft=-3;spacingRight=-3;labelBackgroundColor=none;rounded=0;html=1;whiteSpace=wrap;verticalAlign=middle;align=center;;html=1;" parent="1" vertex="1">
          <mxGeometry x="310" y="300" width="55.65" height="31.61" as="geometry" />
        </mxCell>
        <mxCell id="JFg7P7vN6lW9qgMMOl7U-39" value="&lt;font style=&quot;font-size:8px;font-family:Calibri;color:#000000;direction:ltr;letter-spacing:0px;line-height:120%;opacity:1&quot;&gt;Conductivity &lt;br/&gt;Meter&lt;br/&gt;&lt;/font&gt;" style="text;vsdxID=67;rotation=0.05;fillColor=none;gradientColor=none;strokeColor=none;spacingLeft=-3;spacingRight=-3;labelBackgroundColor=none;rounded=0;html=1;whiteSpace=wrap;verticalAlign=middle;align=center;;html=1;" parent="1" vertex="1">
          <mxGeometry x="490" y="210" width="46.95" height="31.61" as="geometry" />
        </mxCell>
        <mxCell id="JFg7P7vN6lW9qgMMOl7U-43" value="&lt;font style=&quot;font-size:8px;font-family:Calibri;color:#000000;direction:ltr;letter-spacing:0px;line-height:120%;opacity:1&quot;&gt;Conductivity &lt;br/&gt;Meter&lt;br/&gt;&lt;/font&gt;" style="text;vsdxID=38;rotation=0.05;fillColor=none;gradientColor=none;strokeColor=none;spacingLeft=-3;spacingRight=-3;labelBackgroundColor=none;rounded=0;html=1;whiteSpace=wrap;verticalAlign=middle;align=center;;html=1;" parent="1" vertex="1">
          <mxGeometry x="520" y="390" width="46.95" height="21" as="geometry" />
        </mxCell>
        <mxCell id="JFg7P7vN6lW9qgMMOl7U-1" value="Pipelines" parent="0" />
        <mxCell id="JFg7P7vN6lW9qgMMOl7U-2" style="vsdxID=14;rotation=90;fillColor=none;gradientColor=none;strokeColor=none;spacingLeft=-3;spacingRight=-3;labelBackgroundColor=none;rounded=0;html=1;whiteSpace=wrap;" parent="JFg7P7vN6lW9qgMMOl7U-1" vertex="1">
          <mxGeometry x="358" y="167" width="31" height="14" as="geometry" />
        </mxCell>
        <mxCell id="JFg7P7vN6lW9qgMMOl7U-3" value="" style="verticalAlign=middle;align=center;vsdxID=15;rotation=90;fillColor=#FFFFFF;gradientColor=none;shape=stencil(tVLLEoMgDPwajjIISu25j/9gKipTKk6grf374tCHqJ0eOr0lZDe7IUFsYxvRSUSJdWCO8qpK1yC2RZSqtpGgnI8Q2yG2qQzIGsy5LUPeiQE5RCdzGTr0gUcGBiW3kOUh3QekgIMvwQNJKS54QEMMf/bKcrxKl/qRPhG9sgkYJ5wybSStBdQy8VpJpUUdlexVym70nP7ibnHSvzjzwfu7K6V12Nar/mkXHPN1ZLLIMePjzlq1IzxbY0IjQpphno0JscCc8EVh5mgmEM06mdMH0zP0T+GE2e4O);strokeColor=#000000;spacingLeft=-3;spacingRight=-3;labelBackgroundColor=none;rounded=0;html=1;whiteSpace=wrap;" parent="JFg7P7vN6lW9qgMMOl7U-2" vertex="1">
          <mxGeometry width="31" height="14" as="geometry" />
        </mxCell>
        <mxCell id="JFg7P7vN6lW9qgMMOl7U-4" value="" style="verticalAlign=middle;align=center;vsdxID=17;rotation=90;fillColor=#000000;gradientColor=none;shape=stencil(UzV2Ls5ILEhVNTIoLinKz04tz0wpyVA1dlE1MsrMy0gtyiwBslSNXVWNndPyi1LTi/JL81Ig/IJEkEoQKze/DGRCBUSfiameuSFIl5FBJUTE1ADMdYOozsnMQ1JtaGCARy2QgbAG4kJkOXQnAYUg3jF2BQA=);strokeColor=#000000;spacingLeft=-3;spacingRight=-3;labelBackgroundColor=none;rounded=0;html=1;whiteSpace=wrap;" parent="JFg7P7vN6lW9qgMMOl7U-2" vertex="1">
          <mxGeometry width="31" height="14" as="geometry" />
        </mxCell>
        <mxCell id="JFg7P7vN6lW9qgMMOl7U-5" value="&lt;font style=&quot;font-size:8px;font-family:Calibri;color:#000000;direction:ltr;letter-spacing:0px;line-height:120%;opacity:1&quot;&gt;Pressure Gauge&lt;br/&gt;0-100&lt;br/&gt;&lt;/font&gt;" style="text;vsdxID=14;rotation=0.05;fillColor=none;gradientColor=none;strokeColor=none;spacingLeft=-3;spacingRight=-3;labelBackgroundColor=none;rounded=0;html=1;whiteSpace=wrap;verticalAlign=middle;align=center;;html=1;" parent="JFg7P7vN6lW9qgMMOl7U-2" vertex="1">
          <mxGeometry x="19" y="-8" width="55.65" height="31.61" as="geometry" />
        </mxCell>
        <mxCell id="JFg7P7vN6lW9qgMMOl7U-6" style="vsdxID=18;rotation=90;fillColor=none;gradientColor=none;strokeColor=none;spacingLeft=-3;spacingRight=-3;labelBackgroundColor=none;rounded=0;html=1;whiteSpace=wrap;" parent="JFg7P7vN6lW9qgMMOl7U-1" vertex="1">
          <mxGeometry x="276" y="167" width="31" height="14" as="geometry" />
        </mxCell>
        <mxCell id="JFg7P7vN6lW9qgMMOl7U-7" value="" style="verticalAlign=middle;align=center;vsdxID=19;rotation=90;fillColor=#FFFFFF;gradientColor=none;shape=stencil(tVLLEoMgDPwajjIISu25j/9gKipTKk6grf374tCHqJ0eOr0lZDe7IUFsYxvRSUSJdWCO8qpK1yC2RZSqtpGgnI8Q2yG2qQzIGsy5LUPeiQE5RCdzGTr0gUcGBiW3kOUh3QekgIMvwQNJKS54QEMMf/bKcrxKl/qRPhG9sgkYJ5wybSStBdQy8VpJpUUdlexVym70nP7ibnHSvzjzwfu7K6V12Nar/mkXHPN1ZLLIMePjzlq1IzxbY0IjQpphno0JscCc8EVh5mgmEM06mdMH0zP0T+GE2e4O);strokeColor=#000000;spacingLeft=-3;spacingRight=-3;labelBackgroundColor=none;rounded=0;html=1;whiteSpace=wrap;" parent="JFg7P7vN6lW9qgMMOl7U-6" vertex="1">
          <mxGeometry width="31" height="14" as="geometry" />
        </mxCell>
        <mxCell id="JFg7P7vN6lW9qgMMOl7U-8" value="" style="verticalAlign=middle;align=center;vsdxID=21;rotation=90;fillColor=#000000;gradientColor=none;shape=stencil(UzV2Ls5ILEhVNTIoLinKz04tz0wpyVA1dlE1MsrMy0gtyiwBslSNXVWNndPyi1LTi/JL81Ig/IJEkEoQKze/DGRCBUSfiameuSFIl5FBJUTE1ADMdYOozsnMQ1JtaGCARy2QgbAG4kJkOXQnAYUg3jF2BQA=);strokeColor=#000000;spacingLeft=-3;spacingRight=-3;labelBackgroundColor=none;rounded=0;html=1;whiteSpace=wrap;" parent="JFg7P7vN6lW9qgMMOl7U-6" vertex="1">
          <mxGeometry width="31" height="14" as="geometry" />
        </mxCell>
        <mxCell id="JFg7P7vN6lW9qgMMOl7U-9" value="&lt;font style=&quot;font-size:8px;font-family:Calibri;color:#000000;direction:ltr;letter-spacing:0px;line-height:120%;opacity:1&quot;&gt;Pressure Gauge&lt;br/&gt;0-100&lt;br/&gt;&lt;/font&gt;" style="text;vsdxID=18;rotation=0.05;fillColor=none;gradientColor=none;strokeColor=none;spacingLeft=-3;spacingRight=-3;labelBackgroundColor=none;rounded=0;html=1;whiteSpace=wrap;verticalAlign=middle;align=center;;html=1;" parent="JFg7P7vN6lW9qgMMOl7U-6" vertex="1">
          <mxGeometry x="19" y="-8" width="55.65" height="31.61" as="geometry" />
        </mxCell>
        <mxCell id="JFg7P7vN6lW9qgMMOl7U-10" style="vsdxID=23;fillColor=none;gradientColor=none;strokeColor=none;spacingLeft=-3;spacingRight=-3;labelBackgroundColor=none;rounded=0;html=1;whiteSpace=wrap;" parent="JFg7P7vN6lW9qgMMOl7U-1" vertex="1">
          <mxGeometry x="206" y="499" width="50" height="30" as="geometry" />
        </mxCell>
        <mxCell id="JFg7P7vN6lW9qgMMOl7U-11" style="vsdxID=24;fillColor=#FFFFFF;gradientColor=none;shape=stencil(tVPLbsMgEPwajkaYjR+c0+Q/UINtVNdYmCTO3xe0rhscGrWH3HZ3hmWGEQT2UydHRTibnDUf6qpPriPwRjjXQ6esdr4icCCwb4xVrTXn4YT9KAMzVJ/mEjbMeI6zcISzG7YFtkekSvvuIbtQgdG8RLZd6ZQvo4VUJ/exOZOznjJrnHTaDAguWC9tqzJ/V9b0so2g6arU+DBOquOCQh2r29VUxOrSbv+tLv+DOl/8vHmj+x4jW/FfAxGRxLx4YrmiFWwslzT0d5arPLXvJYHERjYX18+MlPRb12oEaCHi7ERq30uMRNltcvPF9m/5Ef5LOHwB);strokeColor=#000000;spacingLeft=-3;spacingRight=-3;labelBackgroundColor=none;rounded=0;html=1;whiteSpace=wrap;" parent="JFg7P7vN6lW9qgMMOl7U-10" vertex="1">
          <mxGeometry width="50" height="30" as="geometry" />
        </mxCell>
        <mxCell id="JFg7P7vN6lW9qgMMOl7U-12" style="vsdxID=25;fillColor=#000000;gradientColor=none;shape=stencil(jZBJDoAgDEVP0z3SmLh3uIcJKEQFgzjdXkgXDgvi7v/29actYLmodpbA2eKdHeSuhVeAFXCujZJO+6AAa8Cys072zq5GkJ/bSEY12S0mHDTH4gRnJ7mcbEPkqM2DTKLv0OJ/asZSbBD34nTzs/c9MpToQVhf);strokeColor=#000000;spacingLeft=-3;spacingRight=-3;labelBackgroundColor=none;rounded=0;html=1;whiteSpace=wrap;" parent="JFg7P7vN6lW9qgMMOl7U-10" vertex="1">
          <mxGeometry width="50" height="30" as="geometry" />
        </mxCell>
        <mxCell id="JFg7P7vN6lW9qgMMOl7U-13" value="&lt;font style=&quot;font-size:8px;font-family:Calibri;color:#000000;direction:ltr;letter-spacing:0px;line-height:120%;opacity:1&quot;&gt;Recycle&lt;br/&gt;Flow Meter&lt;br/&gt;&lt;/font&gt;" style="text;vsdxID=23;fillColor=none;gradientColor=none;strokeColor=none;spacingLeft=-3;spacingRight=-3;labelBackgroundColor=none;rounded=0;html=1;whiteSpace=wrap;verticalAlign=middle;align=center;;html=1;" parent="JFg7P7vN6lW9qgMMOl7U-10" vertex="1">
          <mxGeometry x="4.58" y="-29.62" width="41.64" height="31.61" as="geometry" />
        </mxCell>
        <mxCell id="JFg7P7vN6lW9qgMMOl7U-14" value="" style="vsdxID=36;edgeStyle=none;startArrow=blockThin;endArrow=none;startSize=5;endSize=5;strokeColor=#000000;spacingTop=0;spacingBottom=0;spacingLeft=0;spacingRight=0;verticalAlign=middle;html=1;labelBackgroundColor=none;rounded=0;align=center;" parent="JFg7P7vN6lW9qgMMOl7U-1" edge="1">
          <mxGeometry relative="1" as="geometry">
            <mxPoint x="53" y="-61" as="offset" />
            <Array as="points" />
            <mxPoint x="501" y="406" as="sourcePoint" />
            <mxPoint x="501" y="311" as="targetPoint" />
          </mxGeometry>
        </mxCell>
        <mxCell id="JFg7P7vN6lW9qgMMOl7U-15" value="" style="vsdxID=35;edgeStyle=none;startArrow=blockThin;endArrow=none;startSize=5;endSize=5;strokeColor=#000000;spacingTop=0;spacingBottom=0;spacingLeft=0;spacingRight=0;verticalAlign=middle;html=1;labelBackgroundColor=none;rounded=0;align=center;" parent="JFg7P7vN6lW9qgMMOl7U-1" edge="1">
          <mxGeometry relative="1" as="geometry">
            <mxPoint x="18" y="-13" as="offset" />
            <Array as="points" />
            <mxPoint x="501" y="311" as="sourcePoint" />
            <mxPoint x="456" y="311" as="targetPoint" />
          </mxGeometry>
        </mxCell>
        <mxCell id="JFg7P7vN6lW9qgMMOl7U-16" value="" style="vsdxID=51;edgeStyle=none;startArrow=blockThin;endArrow=none;startSize=5;endSize=5;strokeColor=#000000;spacingTop=0;spacingBottom=0;spacingLeft=0;spacingRight=0;verticalAlign=middle;html=1;labelBackgroundColor=none;rounded=0;align=center;" parent="JFg7P7vN6lW9qgMMOl7U-1" edge="1">
          <mxGeometry relative="1" as="geometry">
            <mxPoint x="-23" y="-13" as="offset" />
            <Array as="points" />
            <mxPoint x="540" y="279" as="sourcePoint" />
            <mxPoint x="413" y="279" as="targetPoint" />
          </mxGeometry>
        </mxCell>
        <mxCell id="JFg7P7vN6lW9qgMMOl7U-17" value="" style="vsdxID=34;edgeStyle=none;startArrow=blockThin;endArrow=none;startSize=5;endSize=5;strokeColor=#000000;spacingTop=0;spacingBottom=0;spacingLeft=0;spacingRight=0;verticalAlign=middle;html=1;labelBackgroundColor=none;rounded=0;align=center;" parent="JFg7P7vN6lW9qgMMOl7U-1" edge="1">
          <mxGeometry relative="1" as="geometry">
            <mxPoint x="27" y="34" as="offset" />
            <Array as="points" />
            <mxPoint x="456" y="311" as="sourcePoint" />
            <mxPoint x="456" y="406" as="targetPoint" />
          </mxGeometry>
        </mxCell>
        <mxCell id="JFg7P7vN6lW9qgMMOl7U-18" value="" style="vsdxID=32;edgeStyle=none;startArrow=blockThin;endArrow=none;startSize=5;endSize=5;strokeColor=#000000;spacingTop=0;spacingBottom=0;spacingLeft=0;spacingRight=0;verticalAlign=middle;html=1;labelBackgroundColor=none;rounded=0;align=center;" parent="JFg7P7vN6lW9qgMMOl7U-1" edge="1">
          <mxGeometry relative="1" as="geometry">
            <mxPoint x="53" y="-61" as="offset" />
            <Array as="points" />
            <mxPoint x="413" y="406" as="sourcePoint" />
            <mxPoint x="413" y="311" as="targetPoint" />
          </mxGeometry>
        </mxCell>
        <mxCell id="JFg7P7vN6lW9qgMMOl7U-19" style="vsdxID=43;rotation=90;fillColor=none;gradientColor=none;strokeColor=none;spacingLeft=-3;spacingRight=-3;labelBackgroundColor=none;rounded=0;html=1;whiteSpace=wrap;" parent="JFg7P7vN6lW9qgMMOl7U-1" vertex="1">
          <mxGeometry x="355" y="322" width="38" height="14" as="geometry" />
        </mxCell>
        <mxCell id="JFg7P7vN6lW9qgMMOl7U-20" value="" style="verticalAlign=middle;align=center;vsdxID=44;rotation=90;fillColor=#FFFFFF;gradientColor=none;shape=stencil(tVLLDsIgEPwajiU8pKnnWv+DWNoSsTQLav17afBRrMZ48LbLzuzMsot46To5KMSI82D36qxr3yG+QYzpvlOgfYgQrxAvGwuqBXvs65gPckJO0cGepg5j5JGJwcglZiKm24iUsAsluCHpGhMR0ZDC7714gem7dmTM5KhdBtZLr22fKBsJrcqCVNYY2SYld1ZqmD3TH81hQhN/b2f9i7kQPD+80cbEfT3qn7YhsCgSk4XAPJ93Nrqf4TnDgiUEusL5ak5IBZaELwoLRwuBZNaXOUPweojhKR4xr64=);strokeColor=#000000;spacingLeft=-3;spacingRight=-3;labelBackgroundColor=none;rounded=0;html=1;whiteSpace=wrap;" parent="JFg7P7vN6lW9qgMMOl7U-19" vertex="1">
          <mxGeometry width="38" height="14" as="geometry" />
        </mxCell>
        <mxCell id="JFg7P7vN6lW9qgMMOl7U-21" value="" style="verticalAlign=middle;align=center;vsdxID=46;rotation=90;fillColor=#000000;gradientColor=none;shape=stencil(fU85DoAwDHtNVhQaIbFz/AOJQiugRaVcv6clA4iBzXbsxAEqFtXMEgQu3tlB7rr1CqgEIbRR0mkfEFAFVHTWyd7Z1bTM5yY6I5rsFjccnKM8SWNI4MlChjet2Txq8zKniD/eAJ4rXPA9+zYKEn9D1QU=);strokeColor=#000000;spacingLeft=-3;spacingRight=-3;labelBackgroundColor=none;rounded=0;html=1;whiteSpace=wrap;" parent="JFg7P7vN6lW9qgMMOl7U-19" vertex="1">
          <mxGeometry width="38" height="14" as="geometry" />
        </mxCell>
        <mxCell id="JFg7P7vN6lW9qgMMOl7U-23" value="&lt;p style=&quot;align:center;margin-left:0;margin-right:0;margin-top:0px;margin-bottom:0px;text-indent:0;valign:middle;direction:ltr;&quot;&gt;&lt;font style=&quot;font-size:8px;font-family:Calibri;color:#000000;direction:ltr;letter-spacing:0px;line-height:120%;opacity:1&quot;&gt;1:1:1 ARRAY&lt;br/&gt;2521 Membranes&lt;/font&gt;&lt;font style=&quot;font-size:14px;font-family:Calibri;color:#000000;direction:ltr;letter-spacing:0px;line-height:120%;opacity:1&quot;&gt;&lt;br/&gt;&lt;/font&gt;&lt;/p&gt;" style="verticalAlign=middle;align=center;vsdxID=47;fillColor=none;gradientColor=none;shape=stencil(nZBLDoAgDERP0z3SIyjew0SURgSD+Lu9kMZoXLhwN9O+tukAlrNpJg1SzDH4QW/URgNYgZTkjA4UkwJUgGXng+6DX1zLfmoymdXo17xh5zmRJ6Q42BWCfc2oJfdAr+Yv+AP9Cb7OJ3H/2JG1HNGz/84klThPVCc=);strokeColor=none;labelBackgroundColor=none;rounded=0;html=1;whiteSpace=wrap;" parent="JFg7P7vN6lW9qgMMOl7U-1" vertex="1">
          <mxGeometry x="406" y="476" width="107" height="25" as="geometry" />
        </mxCell>
        <mxCell id="JFg7P7vN6lW9qgMMOl7U-24" style="vsdxID=55;fillColor=none;gradientColor=none;strokeColor=none;spacingLeft=-3;spacingRight=-3;labelBackgroundColor=none;rounded=0;html=1;whiteSpace=wrap;" parent="JFg7P7vN6lW9qgMMOl7U-1" vertex="1">
          <mxGeometry x="540" y="264" width="50" height="30" as="geometry" />
        </mxCell>
        <mxCell id="JFg7P7vN6lW9qgMMOl7U-25" style="vsdxID=56;fillColor=#FFFFFF;gradientColor=none;shape=stencil(tVPLbsMgEPwajkaY9YOc0/Q/UIJtVNdYa9I4f18oViJwHDWH3JadYXeGEQT2UydHRTibLJovddEn2xH4IJzroVOorasIHAjsG4OqRXMeTuE8Ss/01bf58RPmcI9zyoS/xdk1dEr2d/wMbIlHB+HCBkY95tl4o1OoQmshia2RbM7krKcMjZVWmyGAC9ZLbFXm1mVNL9sImi5Kjav2Q4F8RyERWAgq6kjgpueXBeb/EOiK++M3uu9Ddjd8KxnIU5V5+cR4TUWZGK9owSPjNWyMfEsysZ31bvHMTkVZkdgBWkRu1g8k3ugmijGJ0BXpf3Ot8Ffh8As=);strokeColor=#000000;spacingLeft=-3;spacingRight=-3;labelBackgroundColor=none;rounded=0;html=1;whiteSpace=wrap;" parent="JFg7P7vN6lW9qgMMOl7U-24" vertex="1">
          <mxGeometry width="50" height="30" as="geometry" />
        </mxCell>
        <mxCell id="JFg7P7vN6lW9qgMMOl7U-26" style="vsdxID=57;fillColor=#000000;gradientColor=none;shape=stencil(UzV2Ls5ILEhVNTIoLinKz04tz0wpyVA1dlE1MsrMy0gtyiwBslSNXVWNndPyi1LTi/JL81Ig/IJEkEoQKze/DGRCBUSfAUiHkUElhGcK4bpBVOZk5iGpNDLSM7DAoxrVXAsCqlHNNjTA5w4gA+F8iM+R5dC9ChSCBJOxKwA=);strokeColor=#000000;spacingLeft=-3;spacingRight=-3;labelBackgroundColor=none;rounded=0;html=1;whiteSpace=wrap;" parent="JFg7P7vN6lW9qgMMOl7U-24" vertex="1">
          <mxGeometry width="50" height="30" as="geometry" />
        </mxCell>
        <mxCell id="JFg7P7vN6lW9qgMMOl7U-27" value="&lt;font style=&quot;font-size:8px;font-family:Calibri;color:#000000;direction:ltr;letter-spacing:0px;line-height:120%;opacity:1&quot;&gt;Permeate&lt;br/&gt;Flow Meter&lt;br/&gt;&lt;/font&gt;" style="text;vsdxID=55;fillColor=none;gradientColor=none;strokeColor=none;spacingLeft=-3;spacingRight=-3;labelBackgroundColor=none;rounded=0;html=1;whiteSpace=wrap;verticalAlign=middle;align=center;;html=1;" parent="JFg7P7vN6lW9qgMMOl7U-24" vertex="1">
          <mxGeometry x="7.12" y="-39.15" width="41.64" height="31.61" as="geometry" />
        </mxCell>
        <mxCell id="JFg7P7vN6lW9qgMMOl7U-28" style="vsdxID=8;rotation=90;fillColor=none;gradientColor=none;strokeColor=none;spacingLeft=-3;spacingRight=-3;labelBackgroundColor=none;rounded=0;html=1;whiteSpace=wrap;" parent="JFg7P7vN6lW9qgMMOl7U-1" vertex="1">
          <mxGeometry x="208" y="174" width="31" height="12" as="geometry" />
        </mxCell>
        <mxCell id="JFg7P7vN6lW9qgMMOl7U-29" value="" style="verticalAlign=middle;align=center;vsdxID=9;rotation=90;fillColor=#FFFFFF;gradientColor=none;shape=stencil(jZBLDoQgDIZP0z1DnROg3sNElEYEg+iMtxfShY+Fcff/7dcnoJpNM2mQYo7BD/pHbTSAJUhJzuhAMSnAClB1Pug++MW17Kcmk1mNfs0d/lwncoUUG7uPYF8zasmd0OLKfh/QK/kavI1P4li7I2v56nP+fmYK8Yuw2gE=);strokeColor=#000000;spacingLeft=-3;spacingRight=-3;labelBackgroundColor=none;rounded=0;html=1;whiteSpace=wrap;" parent="JFg7P7vN6lW9qgMMOl7U-28" vertex="1">
          <mxGeometry width="31" height="12" as="geometry" />
        </mxCell>
        <mxCell id="JFg7P7vN6lW9qgMMOl7U-30" value="" style="verticalAlign=middle;align=center;vsdxID=10;rotation=90;fillColor=#000000;gradientColor=none;shape=stencil(fY9LDoAgDERP0z1SPYGfe5CAQlQggL/bC+lC48LdTPvaTgHbqIVXwFlMwc3qMDJpwA44N1arYFJWgD1gO7qgpuA2K8l7UciiVreXDSfNVYyVGc4u8g3ZgdjF2Bdb/6FZPDco3rv3zZNL9Av2Nw==);strokeColor=#000000;spacingLeft=-3;spacingRight=-3;labelBackgroundColor=none;rounded=0;html=1;whiteSpace=wrap;" parent="JFg7P7vN6lW9qgMMOl7U-28" vertex="1">
          <mxGeometry width="31" height="12" as="geometry" />
        </mxCell>
        <mxCell id="JFg7P7vN6lW9qgMMOl7U-31" value="&lt;font style=&quot;font-size:8px;font-family:Calibri;color:#000000;direction:ltr;letter-spacing:0px;line-height:120%;opacity:1&quot;&gt;Conductivity &lt;br/&gt;Meter&lt;br/&gt;&lt;/font&gt;" style="text;vsdxID=8;rotation=0.05;fillColor=none;gradientColor=none;strokeColor=none;spacingLeft=-3;spacingRight=-3;labelBackgroundColor=none;rounded=0;html=1;whiteSpace=wrap;verticalAlign=middle;align=center;;html=1;" parent="JFg7P7vN6lW9qgMMOl7U-28" vertex="1">
          <mxGeometry x="20" y="-10" width="46.95" height="31.61" as="geometry" />
        </mxCell>
        <mxCell id="JFg7P7vN6lW9qgMMOl7U-32" style="vsdxID=59;rotation=0;fillColor=none;gradientColor=none;strokeColor=none;spacingLeft=-3;spacingRight=-3;labelBackgroundColor=none;rounded=0;html=1;whiteSpace=wrap;" parent="JFg7P7vN6lW9qgMMOl7U-1" vertex="1">
          <mxGeometry x="609" y="437" width="50" height="30" as="geometry" />
        </mxCell>
        <mxCell id="JFg7P7vN6lW9qgMMOl7U-33" style="vsdxID=60;rotation=0;fillColor=#FFFFFF;gradientColor=none;shape=stencil(tVPRcoMgEPwaHr2BO6n6nKb/wSSoTK04SBv798HipIOaTPuQt+N2OXZvB0aHsVWDZshH7+y7vpizbxm9MkTTt9oZHypGR0aH2jrdOPvZn+N5UDNzrj7s1zxhivcQQeTzLeTfsSP5z/EtspU7BcgtbOKAIrLdjQ65jK2FVCJw3BvJp0xNZsyc9cob20dwwTrlGp2F57K6U00CjReth017VyBWG4F5CUWVCLzr+d8CxR8EhuJ3+bXpupjdDb+XDAkQ6RqFfGC8gGrl+wVk6rsg4PnexKcEk7rZvl0+ciOhXNshQErsbBdUPtFOEuMqwlCs/1toxb9Kxys=);strokeColor=#000000;spacingLeft=-3;spacingRight=-3;labelBackgroundColor=none;rounded=0;html=1;whiteSpace=wrap;" parent="JFg7P7vN6lW9qgMMOl7U-32" vertex="1">
          <mxGeometry width="50" height="30" as="geometry" />
        </mxCell>
        <mxCell id="JFg7P7vN6lW9qgMMOl7U-34" style="vsdxID=61;rotation=4;fillColor=#000000;gradientColor=none;shape=stencil(jVDLDoMwDPuaXFFIQOLO2H8gUdZqrEWl4/H3tMphsAPiZieOZQe4nnQ7KiCcgndvtZguaOAHEBmrlTchIuAGuO6dVy/vvrYTPrZJmdDHzclhlTtMF4SbsFLoU5SDsQclUZYXF+qzb0UZ0m3vHK9yRPCLL82Pu/+qcSRv4mYH);strokeColor=#000000;spacingLeft=-3;spacingRight=-3;labelBackgroundColor=none;rounded=0;html=1;whiteSpace=wrap;" parent="JFg7P7vN6lW9qgMMOl7U-32" vertex="1">
          <mxGeometry width="50" height="30" as="geometry" />
        </mxCell>
        <mxCell id="JFg7P7vN6lW9qgMMOl7U-35" value="&lt;font style=&quot;font-size:8px;font-family:Calibri;color:#000000;direction:ltr;letter-spacing:0px;line-height:120%;opacity:1&quot;&gt;Concentrate&lt;br/&gt;Flow Meter&lt;br/&gt;&lt;/font&gt;" style="text;vsdxID=59;rotation=0.56;fillColor=none;gradientColor=none;strokeColor=none;spacingLeft=-3;spacingRight=-3;labelBackgroundColor=none;rounded=0;html=1;whiteSpace=wrap;verticalAlign=middle;align=center;;html=1;" parent="JFg7P7vN6lW9qgMMOl7U-32" vertex="1">
          <mxGeometry x="-2" y="37" width="44.48" height="31.61" as="geometry" />
        </mxCell>
        <mxCell id="JFg7P7vN6lW9qgMMOl7U-36" style="vsdxID=67;rotation=90;fillColor=none;gradientColor=none;strokeColor=none;spacingLeft=-3;spacingRight=-3;labelBackgroundColor=none;rounded=0;html=1;whiteSpace=wrap;" parent="JFg7P7vN6lW9qgMMOl7U-1" vertex="1">
          <mxGeometry x="500" y="257" width="31" height="12" as="geometry" />
        </mxCell>
        <mxCell id="JFg7P7vN6lW9qgMMOl7U-37" value="" style="verticalAlign=middle;align=center;vsdxID=68;rotation=90;fillColor=#FFFFFF;gradientColor=none;shape=stencil(jZBLDoQgDIZP0z1DnROg3sNElEYEg+iMtxfShY+Fcff/7dcnoJpNM2mQYo7BD/pHbTSAJUhJzuhAMSnAClB1Pug++MW17Kcmk1mNfs0d/lwncoUUG7uPYF8zasmd0OLKfh/QK/kavI1P4li7I2v56nP+fmYK8Yuw2gE=);strokeColor=#000000;spacingLeft=-3;spacingRight=-3;labelBackgroundColor=none;rounded=0;html=1;whiteSpace=wrap;" parent="JFg7P7vN6lW9qgMMOl7U-36" vertex="1">
          <mxGeometry width="31" height="12" as="geometry" />
        </mxCell>
        <mxCell id="JFg7P7vN6lW9qgMMOl7U-38" value="" style="verticalAlign=middle;align=center;vsdxID=69;rotation=90;fillColor=#000000;gradientColor=none;shape=stencil(fY9LDoAgDERP0z1SPYGfe5CAQlQggL/bC+lC48LdTPvaTgHbqIVXwFlMwc3qMDJpwA44N1arYFJWgD1gO7qgpuA2K8l7UciiVreXDSfNVYyVGc4u8g3ZgdjF2Bdb/6FZPDco3rv3zZNL9Av2Nw==);strokeColor=#000000;spacingLeft=-3;spacingRight=-3;labelBackgroundColor=none;rounded=0;html=1;whiteSpace=wrap;" parent="JFg7P7vN6lW9qgMMOl7U-36" vertex="1">
          <mxGeometry width="31" height="12" as="geometry" />
        </mxCell>
        <mxCell id="JFg7P7vN6lW9qgMMOl7U-40" style="vsdxID=38;rotation=90;fillColor=none;gradientColor=none;strokeColor=none;spacingLeft=-3;spacingRight=-3;labelBackgroundColor=none;rounded=0;html=1;whiteSpace=wrap;" parent="JFg7P7vN6lW9qgMMOl7U-1" vertex="1">
          <mxGeometry x="528" y="427" width="70.97" height="12" as="geometry" />
        </mxCell>
        <mxCell id="JFg7P7vN6lW9qgMMOl7U-41" value="" style="verticalAlign=middle;align=center;vsdxID=39;rotation=90;fillColor=#FFFFFF;gradientColor=none;shape=stencil(jZBJDoQwDARf4yvKxIIPsPwDiUCsCQkKYZnfTyIfWA6IW7ddttoGLGfdTgqkmIN3X7VRFzRgBVKS1cpTiAqwBix759Xg3WI79lObyKRGt6YNO8+JNCHFj91HsG8YNWRPKBYZFhc8f6Cvi1+DtwRRHMl7MoYPP/fvl8YSfwnrPw==);strokeColor=#000000;spacingLeft=-3;spacingRight=-3;labelBackgroundColor=none;rounded=0;html=1;whiteSpace=wrap;" parent="JFg7P7vN6lW9qgMMOl7U-40" vertex="1">
          <mxGeometry width="34" height="12" as="geometry" />
        </mxCell>
        <mxCell id="JFg7P7vN6lW9qgMMOl7U-42" value="" style="verticalAlign=middle;align=center;vsdxID=40;rotation=90;fillColor=#000000;gradientColor=none;shape=stencil(fY9LDoAgDERP061BGrmAn3uYiEJUIIC/2wvpQuPC3Uz72k4B66B6J4GzEL2d5aGHqAAb4FwbJb2OSQG2gPVovZy83cxA3vWZzGq1e95w0lzJWJ7h7CJfke2IXbR5sSgKFD90Es8ZSvjufSOlEr2D7Q0=);strokeColor=#000000;spacingLeft=-3;spacingRight=-3;labelBackgroundColor=none;rounded=0;html=1;whiteSpace=wrap;" parent="JFg7P7vN6lW9qgMMOl7U-40" vertex="1">
          <mxGeometry width="34" height="12" as="geometry" />
        </mxCell>
        <mxCell id="JFg7P7vN6lW9qgMMOl7U-44" value="" style="verticalAlign=middle;align=center;vsdxID=72;fillColor=#FFFFFF;gradientColor=none;shape=stencil(nZBLDoAgDERP0z3SIyjew0SURgSD+Lu9kMZoXLhwN9O+tukAlrNpJg1SzDH4QW/URgNYgZTkjA4UkwJUgGXng+6DX1zLfmoymdXo17xh5zmRJ6Q42BWCfc2oJfdAr+Yv+AP9Cb7OJ3H/2JG1HNGz/84klThPVCc=);strokeColor=#000000;labelBackgroundColor=none;rounded=0;html=1;whiteSpace=wrap;" parent="JFg7P7vN6lW9qgMMOl7U-1" vertex="1">
          <mxGeometry x="165" y="215" width="41" height="41" as="geometry" />
        </mxCell>
        <mxCell id="JFg7P7vN6lW9qgMMOl7U-47" parent="JFg7P7vN6lW9qgMMOl7U-1" vertex="1">
          <mxGeometry x="350" y="349" as="geometry" />
        </mxCell>
        <mxCell id="JFg7P7vN6lW9qgMMOl7U-48" value="" style="vsdxID=76;edgeStyle=none;startArrow=blockThin;endArrow=none;startSize=5;endSize=5;strokeColor=#000000;spacingTop=0;spacingBottom=0;spacingLeft=0;spacingRight=0;verticalAlign=middle;html=1;labelBackgroundColor=none;rounded=0;align=center;exitX=1.0294117647058822;exitY=0.5;exitDx=0;exitDy=0;exitPerimeter=0;" parent="JFg7P7vN6lW9qgMMOl7U-1" source="JFg7P7vN6lW9qgMMOl7U-96" target="JFg7P7vN6lW9qgMMOl7U-47" edge="1">
          <mxGeometry relative="1" as="geometry">
            <mxPoint x="46" y="16" as="offset" />
            <Array as="points">
              <mxPoint x="350" y="437" />
            </Array>
          </mxGeometry>
        </mxCell>
        <mxCell id="JFg7P7vN6lW9qgMMOl7U-49" parent="JFg7P7vN6lW9qgMMOl7U-1" vertex="1">
          <mxGeometry x="565" y="450" as="geometry" />
        </mxCell>
        <mxCell id="JFg7P7vN6lW9qgMMOl7U-50" value="" style="vsdxID=37;edgeStyle=none;startArrow=blockThin;endArrow=none;startSize=5;endSize=5;strokeColor=#000000;spacingTop=0;spacingBottom=0;spacingLeft=0;spacingRight=0;verticalAlign=middle;html=1;labelBackgroundColor=none;rounded=0;align=center;" parent="JFg7P7vN6lW9qgMMOl7U-1" source="JFg7P7vN6lW9qgMMOl7U-49" target="JFg7P7vN6lW9qgMMOl7U-106" edge="1">
          <mxGeometry relative="1" as="geometry">
            <mxPoint x="15" y="-13" as="offset" />
            <Array as="points">
              <mxPoint x="514.83" y="450" />
            </Array>
          </mxGeometry>
        </mxCell>
        <mxCell id="JFg7P7vN6lW9qgMMOl7U-51" parent="JFg7P7vN6lW9qgMMOl7U-1" vertex="1">
          <mxGeometry x="631" y="196" as="geometry" />
        </mxCell>
        <mxCell id="JFg7P7vN6lW9qgMMOl7U-52" value="&lt;font style=&quot;font-size:8px;font-family:Calibri;color:#000000;direction:ltr;letter-spacing:0px;line-height:120%;opacity:1&quot;&gt;Water Inlet&lt;br/&gt;1&amp;quot; (POC)&lt;br/&gt;&lt;/font&gt;" style="vsdxID=1;edgeStyle=none;startArrow=blockThin;endArrow=none;startSize=5;endSize=5;strokeColor=#000000;spacingTop=0;spacingBottom=0;spacingLeft=0;spacingRight=0;verticalAlign=middle;html=1;labelBackgroundColor=none;rounded=0;align=center;exitX=1;exitY=0.48;exitDx=0;exitDy=0;exitPerimeter=0;" parent="JFg7P7vN6lW9qgMMOl7U-1" source="JFg7P7vN6lW9qgMMOl7U-94" target="JFg7P7vN6lW9qgMMOl7U-51" edge="1">
          <mxGeometry relative="1" as="geometry">
            <mxPoint x="11" y="-20" as="offset" />
            <Array as="points" />
          </mxGeometry>
        </mxCell>
        <mxCell id="JFg7P7vN6lW9qgMMOl7U-53" parent="JFg7P7vN6lW9qgMMOl7U-1" vertex="1">
          <mxGeometry x="374" y="196" as="geometry" />
        </mxCell>
        <mxCell id="JFg7P7vN6lW9qgMMOl7U-54" value="" style="vsdxID=4;edgeStyle=none;startArrow=blockThin;endArrow=none;startSize=5;endSize=5;strokeColor=#000000;spacingTop=0;spacingBottom=0;spacingLeft=0;spacingRight=0;verticalAlign=middle;html=1;labelBackgroundColor=none;rounded=0;align=center;entryX=0;entryY=0.5;entryDx=0;entryDy=0;entryPerimeter=0;" parent="JFg7P7vN6lW9qgMMOl7U-1" source="JFg7P7vN6lW9qgMMOl7U-53" target="JFg7P7vN6lW9qgMMOl7U-84" edge="1">
          <mxGeometry relative="1" as="geometry">
            <mxPoint x="67" y="-13" as="offset" />
            <Array as="points" />
          </mxGeometry>
        </mxCell>
        <mxCell id="JFg7P7vN6lW9qgMMOl7U-55" parent="JFg7P7vN6lW9qgMMOl7U-1" vertex="1">
          <mxGeometry x="152" y="374" as="geometry" />
        </mxCell>
        <mxCell id="JFg7P7vN6lW9qgMMOl7U-56" value="" style="vsdxID=12;edgeStyle=none;startArrow=blockThin;endArrow=none;startSize=5;endSize=5;strokeColor=#000000;spacingTop=0;spacingBottom=0;spacingLeft=0;spacingRight=0;verticalAlign=middle;html=1;labelBackgroundColor=none;rounded=0;align=center;entryX=0;entryY=0.5;entryDx=0;entryDy=0;entryPerimeter=0;" parent="JFg7P7vN6lW9qgMMOl7U-1" source="JFg7P7vN6lW9qgMMOl7U-55" target="JFg7P7vN6lW9qgMMOl7U-10" edge="1">
          <mxGeometry relative="1" as="geometry">
            <mxPoint x="40" y="29" as="offset" />
            <Array as="points">
              <mxPoint x="152" y="513.7" />
            </Array>
          </mxGeometry>
        </mxCell>
        <mxCell id="JFg7P7vN6lW9qgMMOl7U-57" parent="JFg7P7vN6lW9qgMMOl7U-1" vertex="1">
          <mxGeometry x="207" y="315" as="geometry" />
        </mxCell>
        <mxCell id="JFg7P7vN6lW9qgMMOl7U-59" value="" style="vsdxID=71;edgeStyle=none;startArrow=blockThin;endArrow=none;startSize=5;endSize=5;strokeColor=#000000;spacingTop=0;spacingBottom=0;spacingLeft=0;spacingRight=0;verticalAlign=middle;html=1;labelBackgroundColor=none;rounded=0;align=center;exitX=1;exitY=0.5;exitDx=0;exitDy=0;exitPerimeter=0;entryX=0;entryY=0.48;entryDx=0;entryDy=0;entryPerimeter=0;" parent="JFg7P7vN6lW9qgMMOl7U-1" source="JFg7P7vN6lW9qgMMOl7U-84" target="JFg7P7vN6lW9qgMMOl7U-94" edge="1">
          <mxGeometry relative="1" as="geometry">
            <mxPoint x="67" y="-13" as="offset" />
            <Array as="points" />
          </mxGeometry>
        </mxCell>
        <mxCell id="JFg7P7vN6lW9qgMMOl7U-60" parent="JFg7P7vN6lW9qgMMOl7U-1" vertex="1">
          <mxGeometry x="666" y="279" as="geometry" />
        </mxCell>
        <mxCell id="JFg7P7vN6lW9qgMMOl7U-61" value="" style="vsdxID=66;edgeStyle=none;startArrow=blockThin;endArrow=none;startSize=5;endSize=5;strokeColor=#000000;spacingTop=0;spacingBottom=0;spacingLeft=0;spacingRight=0;verticalAlign=middle;html=1;labelBackgroundColor=none;rounded=0;align=center;entryX=1.04;entryY=0.52;entryDx=0;entryDy=0;entryPerimeter=0;" parent="JFg7P7vN6lW9qgMMOl7U-1" source="JFg7P7vN6lW9qgMMOl7U-60" target="JFg7P7vN6lW9qgMMOl7U-91" edge="1">
          <mxGeometry relative="1" as="geometry">
            <mxPoint x="24" y="-13" as="offset" />
            <Array as="points" />
          </mxGeometry>
        </mxCell>
        <mxCell id="JFg7P7vN6lW9qgMMOl7U-62" parent="JFg7P7vN6lW9qgMMOl7U-1" vertex="1">
          <mxGeometry x="679" y="454" as="geometry" />
        </mxCell>
        <mxCell id="JFg7P7vN6lW9qgMMOl7U-63" value="&lt;font style=&quot;font-size:8px;font-family:Calibri;color:#000000;direction:ltr;letter-spacing:0px;line-height:120%;opacity:1&quot;&gt;Concentrate&lt;br/&gt;3/8&amp;quot; (POC)&lt;br/&gt;&lt;/font&gt;" style="vsdxID=63;edgeStyle=none;startArrow=blockThin;endArrow=none;startSize=5;endSize=5;strokeColor=#000000;spacingTop=0;spacingBottom=0;spacingLeft=0;spacingRight=0;verticalAlign=middle;html=1;labelBackgroundColor=none;rounded=0;align=center;" parent="JFg7P7vN6lW9qgMMOl7U-1" target="JFg7P7vN6lW9qgMMOl7U-32" edge="1">
          <mxGeometry relative="1" as="geometry">
            <mxPoint y="-26" as="offset" />
            <Array as="points">
              <mxPoint x="659.95" y="454" />
            </Array>
            <mxPoint x="679" y="454" as="sourcePoint" />
          </mxGeometry>
        </mxCell>
        <mxCell id="JFg7P7vN6lW9qgMMOl7U-64" value="&lt;font style=&quot;font-size:8px;font-family:Calibri;color:#000000;direction:ltr;letter-spacing:0px;line-height:120%;opacity:1&quot;&gt;Permeate&lt;br/&gt;3/8&amp;quot; (POC)&lt;br/&gt;&lt;/font&gt;" style="vsdxID=62;edgeStyle=none;startArrow=blockThin;endArrow=none;startSize=5;endSize=5;strokeColor=#000000;spacingTop=0;spacingBottom=0;spacingLeft=0;spacingRight=0;verticalAlign=middle;html=1;labelBackgroundColor=none;rounded=0;align=center;exitX=0;exitY=0.52;exitDx=0;exitDy=0;exitPerimeter=0;entryX=1.02;entryY=0.5;entryDx=0;entryDy=0;entryPerimeter=0;" parent="JFg7P7vN6lW9qgMMOl7U-1" source="JFg7P7vN6lW9qgMMOl7U-91" target="JFg7P7vN6lW9qgMMOl7U-24" edge="1">
          <mxGeometry relative="1" as="geometry">
            <mxPoint x="49" y="-26" as="offset" />
            <Array as="points" />
          </mxGeometry>
        </mxCell>
        <mxCell id="JFg7P7vN6lW9qgMMOl7U-65" parent="JFg7P7vN6lW9qgMMOl7U-1" vertex="1">
          <mxGeometry x="501" y="279" as="geometry" />
        </mxCell>
        <mxCell id="JFg7P7vN6lW9qgMMOl7U-66" value="" style="vsdxID=50;edgeStyle=none;startArrow=blockThin;endArrow=none;startSize=5;endSize=5;strokeColor=#000000;spacingTop=0;spacingBottom=0;spacingLeft=0;spacingRight=0;verticalAlign=middle;html=1;labelBackgroundColor=none;rounded=0;align=center;" parent="JFg7P7vN6lW9qgMMOl7U-1" source="JFg7P7vN6lW9qgMMOl7U-65" target="JFg7P7vN6lW9qgMMOl7U-106" edge="1">
          <mxGeometry relative="1" as="geometry">
            <mxPoint x="53" y="15" as="offset" />
            <Array as="points">
              <mxPoint x="501" y="336.15" />
            </Array>
          </mxGeometry>
        </mxCell>
        <mxCell id="JFg7P7vN6lW9qgMMOl7U-67" parent="JFg7P7vN6lW9qgMMOl7U-1" vertex="1">
          <mxGeometry x="456" y="279" as="geometry" />
        </mxCell>
        <mxCell id="JFg7P7vN6lW9qgMMOl7U-68" value="" style="vsdxID=49;edgeStyle=none;startArrow=blockThin;endArrow=none;startSize=5;endSize=5;strokeColor=#000000;spacingTop=0;spacingBottom=0;spacingLeft=0;spacingRight=0;verticalAlign=middle;html=1;labelBackgroundColor=none;rounded=0;align=center;" parent="JFg7P7vN6lW9qgMMOl7U-1" source="JFg7P7vN6lW9qgMMOl7U-67" target="JFg7P7vN6lW9qgMMOl7U-107" edge="1">
          <mxGeometry relative="1" as="geometry">
            <mxPoint x="53" y="15" as="offset" />
            <Array as="points">
              <mxPoint x="456" y="336.15" />
            </Array>
          </mxGeometry>
        </mxCell>
        <mxCell id="JFg7P7vN6lW9qgMMOl7U-69" parent="JFg7P7vN6lW9qgMMOl7U-1" vertex="1">
          <mxGeometry x="413" y="279" as="geometry" />
        </mxCell>
        <mxCell id="JFg7P7vN6lW9qgMMOl7U-70" value="" style="vsdxID=48;edgeStyle=none;startArrow=blockThin;endArrow=none;startSize=5;endSize=5;strokeColor=#000000;spacingTop=0;spacingBottom=0;spacingLeft=0;spacingRight=0;verticalAlign=middle;html=1;labelBackgroundColor=none;rounded=0;align=center;" parent="JFg7P7vN6lW9qgMMOl7U-1" source="JFg7P7vN6lW9qgMMOl7U-69" target="JFg7P7vN6lW9qgMMOl7U-105" edge="1">
          <mxGeometry relative="1" as="geometry">
            <mxPoint x="53" y="15" as="offset" />
            <Array as="points">
              <mxPoint x="413" y="336.15" />
            </Array>
          </mxGeometry>
        </mxCell>
        <mxCell id="JFg7P7vN6lW9qgMMOl7U-71" parent="JFg7P7vN6lW9qgMMOl7U-1" vertex="1">
          <mxGeometry x="565" y="447" as="geometry" />
        </mxCell>
        <mxCell id="JFg7P7vN6lW9qgMMOl7U-72" value="" style="vsdxID=42;edgeStyle=none;startArrow=blockThin;endArrow=none;startSize=5;endSize=5;strokeColor=#000000;spacingTop=0;spacingBottom=0;spacingLeft=0;spacingRight=0;verticalAlign=middle;html=1;labelBackgroundColor=none;rounded=0;align=center;exitX=1;exitY=0.52;exitDx=0;exitDy=0;exitPerimeter=0;" parent="JFg7P7vN6lW9qgMMOl7U-1" source="JFg7P7vN6lW9qgMMOl7U-87" target="JFg7P7vN6lW9qgMMOl7U-71" edge="1">
          <mxGeometry relative="1" as="geometry">
            <mxPoint x="121" y="-13" as="offset" />
            <Array as="points">
              <mxPoint x="564.6" y="514" />
            </Array>
          </mxGeometry>
        </mxCell>
        <mxCell id="JFg7P7vN6lW9qgMMOl7U-73" parent="JFg7P7vN6lW9qgMMOl7U-1" vertex="1">
          <mxGeometry x="565" y="454" as="geometry" />
        </mxCell>
        <mxCell id="JFg7P7vN6lW9qgMMOl7U-74" value="" style="vsdxID=41;edgeStyle=none;startArrow=blockThin;endArrow=none;startSize=5;endSize=5;strokeColor=#000000;spacingTop=0;spacingBottom=0;spacingLeft=0;spacingRight=0;verticalAlign=middle;html=1;labelBackgroundColor=none;rounded=0;align=center;exitX=0;exitY=0.48;exitDx=0;exitDy=0;exitPerimeter=0;" parent="JFg7P7vN6lW9qgMMOl7U-1" source="JFg7P7vN6lW9qgMMOl7U-89" target="JFg7P7vN6lW9qgMMOl7U-73" edge="1">
          <mxGeometry relative="1" as="geometry">
            <mxPoint x="29" y="-13" as="offset" />
            <Array as="points">
              <mxPoint x="564.95" y="450" />
            </Array>
          </mxGeometry>
        </mxCell>
        <mxCell id="JFg7P7vN6lW9qgMMOl7U-75" parent="JFg7P7vN6lW9qgMMOl7U-1" vertex="1">
          <mxGeometry x="152" y="374" as="geometry" />
        </mxCell>
        <mxCell id="JFg7P7vN6lW9qgMMOl7U-76" value="" style="vsdxID=13;edgeStyle=none;startArrow=blockThin;endArrow=none;startSize=5;endSize=5;strokeColor=#000000;spacingTop=0;spacingBottom=0;spacingLeft=0;spacingRight=0;verticalAlign=middle;html=1;labelBackgroundColor=none;rounded=0;align=center;exitX=-0.26;exitY=0.5;exitDx=0;exitDy=0;exitPerimeter=0;" parent="JFg7P7vN6lW9qgMMOl7U-1" source="JFg7P7vN6lW9qgMMOl7U-103" target="JFg7P7vN6lW9qgMMOl7U-75" edge="1">
          <mxGeometry relative="1" as="geometry">
            <mxPoint x="21" y="-13" as="offset" />
            <Array as="points" />
          </mxGeometry>
        </mxCell>
        <mxCell id="JFg7P7vN6lW9qgMMOl7U-77" value="" style="vsdxID=26;edgeStyle=none;startArrow=blockThin;endArrow=none;startSize=5;endSize=5;strokeColor=#000000;spacingTop=0;spacingBottom=0;spacingLeft=0;spacingRight=0;verticalAlign=middle;html=1;labelBackgroundColor=none;rounded=0;align=center;exitX=1.02;exitY=0.5;exitDx=0;exitDy=0;exitPerimeter=0;entryX=0;entryY=0.52;entryDx=0;entryDy=0;entryPerimeter=0;" parent="JFg7P7vN6lW9qgMMOl7U-1" source="JFg7P7vN6lW9qgMMOl7U-10" target="JFg7P7vN6lW9qgMMOl7U-87" edge="1">
          <mxGeometry relative="1" as="geometry">
            <mxPoint x="67" y="-13" as="offset" />
            <Array as="points" />
          </mxGeometry>
        </mxCell>
        <mxCell id="JFg7P7vN6lW9qgMMOl7U-78" parent="JFg7P7vN6lW9qgMMOl7U-1" vertex="1">
          <mxGeometry x="413" y="311" as="geometry" />
        </mxCell>
        <mxCell id="JFg7P7vN6lW9qgMMOl7U-79" value="" style="vsdxID=31;edgeStyle=none;startArrow=blockThin;endArrow=none;startSize=5;endSize=5;strokeColor=#000000;spacingTop=0;spacingBottom=0;spacingLeft=0;spacingRight=0;verticalAlign=middle;html=1;labelBackgroundColor=none;rounded=0;align=center;entryX=1.02;entryY=0;entryDx=0;entryDy=0;entryPerimeter=0;" parent="JFg7P7vN6lW9qgMMOl7U-1" source="JFg7P7vN6lW9qgMMOl7U-78" target="JFg7P7vN6lW9qgMMOl7U-103" edge="1">
          <mxGeometry relative="1" as="geometry">
            <mxPoint x="101" y="-39" as="offset" />
            <Array as="points">
              <mxPoint x="413" y="323.7" />
              <mxPoint x="386.96" y="323.7" />
              <mxPoint x="386.96" y="349.1" />
            </Array>
          </mxGeometry>
        </mxCell>
        <mxCell id="JFg7P7vN6lW9qgMMOl7U-80" value="" style="vsdxID=33;edgeStyle=none;startArrow=blockThin;endArrow=none;startSize=5;endSize=5;strokeColor=#000000;spacingTop=0;spacingBottom=0;spacingLeft=0;spacingRight=0;verticalAlign=middle;html=1;labelBackgroundColor=none;rounded=0;align=center;" parent="JFg7P7vN6lW9qgMMOl7U-1" source="JFg7P7vN6lW9qgMMOl7U-107" target="JFg7P7vN6lW9qgMMOl7U-105" edge="1">
          <mxGeometry relative="1" as="geometry">
            <mxPoint x="62" y="-13" as="offset" />
            <Array as="points">
              <mxPoint x="456" y="450" />
              <mxPoint x="456" y="459.53" />
              <mxPoint x="412.82" y="459.53" />
              <mxPoint x="412.82" y="450" />
            </Array>
          </mxGeometry>
        </mxCell>
        <mxCell id="JFg7P7vN6lW9qgMMOl7U-81" value="" style="vsdxID=6;edgeStyle=none;startArrow=blockThin;endArrow=none;startSize=5;endSize=5;strokeColor=#000000;spacingTop=0;spacingBottom=0;spacingLeft=0;spacingRight=0;verticalAlign=middle;html=1;labelBackgroundColor=none;rounded=0;align=center;" parent="JFg7P7vN6lW9qgMMOl7U-1" edge="1">
          <mxGeometry relative="1" as="geometry">
            <mxPoint x="53" y="-13" as="offset" />
            <Array as="points" />
            <mxPoint x="317" y="196" as="sourcePoint" />
            <mxPoint x="342" y="196" as="targetPoint" />
          </mxGeometry>
        </mxCell>
        <mxCell id="JFg7P7vN6lW9qgMMOl7U-82" value="" style="vsdxID=11;edgeStyle=none;startArrow=blockThin;endArrow=none;startSize=5;endSize=5;strokeColor=#000000;spacingTop=0;spacingBottom=0;spacingLeft=0;spacingRight=0;verticalAlign=middle;html=1;labelBackgroundColor=none;rounded=0;align=center;" parent="JFg7P7vN6lW9qgMMOl7U-1" edge="1">
          <mxGeometry relative="1" as="geometry">
            <mxPoint x="40" y="-13" as="offset" />
            <Array as="points">
              <mxPoint x="152" y="196.2" />
            </Array>
            <mxPoint x="152" y="374" as="sourcePoint" />
            <mxPoint x="331" y="196" as="targetPoint" />
          </mxGeometry>
        </mxCell>
        <mxCell id="JFg7P7vN6lW9qgMMOl7U-83" value="Valve" parent="0" />
        <mxCell id="JFg7P7vN6lW9qgMMOl7U-84" style="vsdxID=2;fillColor=#FFFFFF;gradientColor=none;shape=stencil(UzV2Ls5ILEhVNTIoLinKz04tz0wpyVA1dlE1MsrMy0gtyiwBslSNXVWNndPyi1LTi/JL81Ig/IJEkEoQKze/DGRCBUSfAUiHkUElhGduCua6QVTmZObhVGmER6WhAfGmoqvFZy4+U4EMhBfTMnNyICGELI8eJEAhSHAauwIA);strokeColor=#000000;spacingTop=-3;spacingBottom=-3;spacingLeft=-3;spacingRight=-3;labelBackgroundColor=none;rounded=0;html=1;whiteSpace=wrap;" parent="JFg7P7vN6lW9qgMMOl7U-83" vertex="1">
          <mxGeometry x="428" y="180" width="32" height="32" as="geometry" />
        </mxCell>
        <mxCell id="JFg7P7vN6lW9qgMMOl7U-85" value="&lt;font style=&quot;font-size:8px;font-family:Calibri;color:#000000;direction:ltr;letter-spacing:0px;line-height:120%;opacity:1&quot;&gt;SL&lt;br/&gt;&lt;/font&gt;" style="verticalAlign=middle;align=center;vsdxID=3;fillColor=#FFFFFF;gradientColor=none;shape=stencil(UzV2Ls5ILEhVNTIoLinKz04tz0wpyVA1dlE1MsrMy0gtyiwBslSNXVWNndPyi1LTi/JL81Ig/IJEkEoQKze/DGRCBUSfAUiHkUElhGdoAOG7QZTmZOYhKYVJkqUYj1IyFaJZD2Qg/JiWmZMDCSK4PK4AMCXBU+hqzSz0zE1xOgLNAUAGeqQAhSARauwKAA==);strokeColor=#000000;spacingTop=-3;spacingBottom=-3;spacingLeft=-3;spacingRight=-3;labelBackgroundColor=none;rounded=0;html=1;whiteSpace=wrap;" parent="JFg7P7vN6lW9qgMMOl7U-84" vertex="1">
          <mxGeometry x="9" y="-6" width="13" height="13" as="geometry" />
        </mxCell>
        <mxCell id="JFg7P7vN6lW9qgMMOl7U-86" value="&lt;font style=&quot;font-size:8px;font-family:Calibri;color:#000000;direction:ltr;letter-spacing:0px;line-height:120%;opacity:1&quot;&gt;Solenoid&lt;br/&gt;&lt;/font&gt;" style="text;vsdxID=2;fillColor=none;gradientColor=none;strokeColor=none;spacingTop=-3;spacingBottom=-3;spacingLeft=-3;spacingRight=-3;labelBackgroundColor=none;rounded=0;html=1;whiteSpace=wrap;verticalAlign=middle;align=center;;html=1;" parent="JFg7P7vN6lW9qgMMOl7U-84" vertex="1">
          <mxGeometry x="-17.54" y="36.08" width="67.73" height="10.16" as="geometry" />
        </mxCell>
        <mxCell id="JFg7P7vN6lW9qgMMOl7U-87" style="vsdxID=27;fillColor=#FFFFFF;gradientColor=none;shape=stencil(rZJNDoMgEIVPM3vKxHgAa+9hIhYiBYP07/aFjrGBKHHR3XvwzYOZDGAzy24SwNnsnR3FU/VeAp6Bc2WkcMoHBdgCNoN14urs3fTkpy6SUd3sIya8qI7FCs7e5Hj1tRcitTK7ZF0gT+x4as6WckupQfxaHJTWNKH1fq//Kg1d7ObzGZqQaejytU0yzTxO1n8hkzFlIwoi35pwRBuH7Qc=);strokeColor=#000000;spacingTop=-3;spacingBottom=-3;spacingLeft=-3;spacingRight=-3;labelBackgroundColor=none;rounded=0;html=1;whiteSpace=wrap;" parent="JFg7P7vN6lW9qgMMOl7U-83" vertex="1">
          <mxGeometry x="311" y="501" width="25" height="25" as="geometry" />
        </mxCell>
        <mxCell id="JFg7P7vN6lW9qgMMOl7U-88" value="&lt;font style=&quot;font-size:8px;font-family:Calibri;color:#000000;direction:ltr;letter-spacing:0px;line-height:120%;opacity:1&quot;&gt;Recycle&lt;br/&gt;Valve&lt;br/&gt;¼”&lt;br/&gt;&lt;/font&gt;" style="text;vsdxID=27;fillColor=none;gradientColor=none;strokeColor=none;spacingTop=-3;spacingBottom=-3;spacingLeft=-3;spacingRight=-3;labelBackgroundColor=none;rounded=0;html=1;whiteSpace=wrap;verticalAlign=middle;align=center;;html=1;" parent="JFg7P7vN6lW9qgMMOl7U-87" vertex="1">
          <mxGeometry x="-21.17" y="-31.52" width="67.73" height="30.48" as="geometry" />
        </mxCell>
        <mxCell id="JFg7P7vN6lW9qgMMOl7U-89" style="vsdxID=58;fillColor=#FFFFFF;gradientColor=none;shape=stencil(rZJNDoMgEIVPM3vKxHgAa+9hIhYiBYP07/aFjrGBKHHR3XvwzYOZDGAzy24SwNnsnR3FU/VeAp6Bc2WkcMoHBdgCNoN14urs3fTkpy6SUd3sIya8qI7FCs7e5Hj1tRcitTK7ZF0gT+x4as6WckupQfxaHJTWNKH1fq//Kg1d7ObzGZqQaejytU0yzTxO1n8hkzFlIwoi35pwRBuH7Qc=);strokeColor=#000000;spacingTop=-3;spacingBottom=-3;spacingLeft=-3;spacingRight=-3;labelBackgroundColor=none;rounded=0;html=1;whiteSpace=wrap;" parent="JFg7P7vN6lW9qgMMOl7U-83" vertex="1">
          <mxGeometry x="584" y="438" width="25" height="25" as="geometry" />
        </mxCell>
        <mxCell id="JFg7P7vN6lW9qgMMOl7U-90" value="&lt;font style=&quot;font-size:8px;font-family:Calibri;color:#000000;direction:ltr;letter-spacing:0px;line-height:120%;opacity:1&quot;&gt;Concentrate&lt;br/&gt;Valve&lt;br/&gt;¼”&lt;br/&gt;&lt;/font&gt;" style="text;vsdxID=58;fillColor=none;gradientColor=none;strokeColor=none;spacingTop=-3;spacingBottom=-3;spacingLeft=-3;spacingRight=-3;labelBackgroundColor=none;rounded=0;html=1;whiteSpace=wrap;verticalAlign=middle;align=center;;html=1;" parent="JFg7P7vN6lW9qgMMOl7U-89" vertex="1">
          <mxGeometry x="-21.17" y="-34.69" width="67.73" height="30.48" as="geometry" />
        </mxCell>
        <mxCell id="JFg7P7vN6lW9qgMMOl7U-91" style="vsdxID=64;fillColor=#FFFFFF;gradientColor=none;shape=stencil(UzV2Ls5ILEhVNTIoLinKz04tz0wpyVA1dlE1MsrMy0gtyiwBslSNXVWNndPyi1LTi/JL81Ig/IJEkEoQKze/DGRCBUSfAUiHkUElhGduCua6QVTmZObhVGmER6WhAfGmoqtFNRfIQDg8LTMnB+JvZHl0jwKFIIFk7AoA);strokeColor=#000000;spacingTop=-3;spacingBottom=-3;spacingLeft=-3;spacingRight=-3;labelBackgroundColor=none;rounded=0;html=1;whiteSpace=wrap;" parent="JFg7P7vN6lW9qgMMOl7U-83" vertex="1">
          <mxGeometry x="609" y="266" width="25" height="25" as="geometry" />
        </mxCell>
        <mxCell id="JFg7P7vN6lW9qgMMOl7U-92" value="" style="verticalAlign=middle;align=center;vsdxID=65;fillColor=#FFFFFF;gradientColor=none;shape=stencil(vVHLDsIgEPwajiQI6RfU+h8bu22JCGRB2/69kG1iazx58DazM/vIjjBtmiCi0CplCjecbZ8nYc5Ca+snJJsLEqYTph0C4Ujh4XvmEaqzont41gkL96naodXKrGF6YSfQtUi0OXXDVlqPfJNP6usotUhYbJIUMmQb/GGrAxpRljVycDBuc1hKM2LclX8/7H9nFfB+82Cd45T2+mcspcSRmu4F);strokeColor=#000000;spacingTop=-3;spacingBottom=-3;spacingLeft=-3;spacingRight=-3;labelBackgroundColor=none;rounded=0;html=1;whiteSpace=wrap;" parent="JFg7P7vN6lW9qgMMOl7U-91" vertex="1">
          <mxGeometry x="-2" y="5" width="2" height="2" as="geometry" />
        </mxCell>
        <mxCell id="JFg7P7vN6lW9qgMMOl7U-93" value="&lt;font style=&quot;font-size:8px;font-family:Calibri;color:#000000;direction:ltr;letter-spacing:0px;line-height:120%;opacity:1&quot;&gt;3/8&amp;quot;&lt;br/&gt;&lt;/font&gt;" style="text;vsdxID=64;fillColor=none;gradientColor=none;strokeColor=none;spacingTop=-3;spacingBottom=-3;spacingLeft=-3;spacingRight=-3;labelBackgroundColor=none;rounded=0;html=1;whiteSpace=wrap;verticalAlign=middle;align=center;;html=1;" parent="JFg7P7vN6lW9qgMMOl7U-91" vertex="1">
          <mxGeometry x="-21.17" y="28.18" width="67.73" height="10.16" as="geometry" />
        </mxCell>
        <mxCell id="JFg7P7vN6lW9qgMMOl7U-94" style="vsdxID=70;fillColor=#FFFFFF;gradientColor=none;shape=stencil(rZJNDoMgEIVPM3vKxHgAa+9hIhYiBYP07/aFjrGBKHHR3XvwzYOZDGAzy24SwNnsnR3FU/VeAp6Bc2WkcMoHBdgCNoN14urs3fTkpy6SUd3sIya8qI7FCs7e5Hj1tRcitTK7ZF0gT+x4as6WckupQfxaHJTWNKH1fq//Kg1d7ObzGZqQaejytU0yzTxO1n8hkzFlIwoi35pwRBuH7Qc=);strokeColor=#000000;spacingTop=-3;spacingBottom=-3;spacingLeft=-3;spacingRight=-3;labelBackgroundColor=none;rounded=0;html=1;whiteSpace=wrap;" parent="JFg7P7vN6lW9qgMMOl7U-83" vertex="1">
          <mxGeometry x="514" y="184" width="25" height="25" as="geometry" />
        </mxCell>
        <mxCell id="JFg7P7vN6lW9qgMMOl7U-95" value="&lt;font style=&quot;font-size:8px;font-family:Calibri;color:#000000;direction:ltr;letter-spacing:0px;line-height:120%;opacity:1&quot;&gt;Feed Valve&lt;br/&gt;&lt;/font&gt;" style="text;vsdxID=70;fillColor=none;gradientColor=none;strokeColor=none;spacingTop=-3;spacingBottom=-3;spacingLeft=-3;spacingRight=-3;labelBackgroundColor=none;rounded=0;html=1;whiteSpace=wrap;verticalAlign=middle;align=center;;html=1;" parent="JFg7P7vN6lW9qgMMOl7U-94" vertex="1">
          <mxGeometry x="-21.17" y="-18.18" width="67.73" height="10.16" as="geometry" />
        </mxCell>
        <mxCell id="rHDt2WLydtkrP-5TSH79-4" value="" style="edgeStyle=orthogonalEdgeStyle;rounded=0;orthogonalLoop=1;jettySize=auto;html=1;" edge="1" parent="JFg7P7vN6lW9qgMMOl7U-83" source="JFg7P7vN6lW9qgMMOl7U-96">
          <mxGeometry relative="1" as="geometry">
            <mxPoint x="170" y="370" as="targetPoint" />
          </mxGeometry>
        </mxCell>
        <mxCell id="JFg7P7vN6lW9qgMMOl7U-96" style="vsdxID=78;fillColor=#FFFFFF;gradientColor=none;shape=stencil(rZPfDoIgFMafhksbQtm6NnsPlqgsEneg1LcPw0rUXG3enT8fP/adA4jGumAVRwRrA+rCa5GaAtEjIkSUBQdhbIRogmicKeA5qFuZurxinbKLrureERp3DncnCG5dtt8905NTSlEOlCH2teQP7RL3d+oS0wYfi5mQ0k3o3f/mP/KhNBxCGZxtC16mwg2lTg3tpNSLtrM83ASsEToAZZgRqvT8SAY5D+xdQSZZ7rV0zXk1Kc8OZ2QkOqxrpOetZcQbs7e70d5sMH7KtuS+AU0e);strokeColor=#000000;spacingTop=-3;spacingBottom=-3;spacingLeft=-3;spacingRight=-3;labelBackgroundColor=none;rounded=0;html=1;whiteSpace=wrap;" parent="JFg7P7vN6lW9qgMMOl7U-83" vertex="1">
          <mxGeometry x="301" y="420" width="34" height="34" as="geometry" />
        </mxCell>
        <mxCell id="JFg7P7vN6lW9qgMMOl7U-97" value="&lt;font style=&quot;font-size:8px;font-family:Calibri;color:#000000;direction:ltr;letter-spacing:0px;line-height:120%;opacity:1&quot;&gt;Back Pressure Regulator&lt;br/&gt;&lt;/font&gt;" style="text;vsdxID=78;fillColor=none;gradientColor=none;strokeColor=none;spacingTop=-3;spacingBottom=-3;spacingLeft=-3;spacingRight=-3;labelBackgroundColor=none;rounded=0;html=1;whiteSpace=wrap;verticalAlign=middle;align=center;;html=1;" parent="JFg7P7vN6lW9qgMMOl7U-96" vertex="1">
          <mxGeometry x="-25.09" y="38.37" width="85.1" height="10.16" as="geometry" />
        </mxCell>
        <mxCell id="JFg7P7vN6lW9qgMMOl7U-98" value="Equipment" parent="0" />
        <mxCell id="JFg7P7vN6lW9qgMMOl7U-99" style="vsdxID=5;fillColor=#FFFFFF;gradientColor=none;shape=stencil(nZLNDsIgEISfZo8auptG77W+R5PSQkRoKP69fSFELURr7G0Gvp1kFoCqUTQDB2Sjs+bEb7J1AugAiFILbqXzCqgGqjpjeW/NRbfRD00ggzqba0i4xzkWJpA95u4YQSX1DCzYavTpP8Kr0QT04t2wk0rFBb3uv9XfYJmE7nfbcqHYD3o5u8B/snM6aZi18yJ/b38U/wrVEw==);strokeColor=#000000;labelBackgroundColor=none;rounded=0;html=1;whiteSpace=wrap;" parent="JFg7P7vN6lW9qgMMOl7U-98" vertex="1">
          <mxGeometry x="349" y="190" width="25" height="50" as="geometry" />
        </mxCell>
        <mxCell id="JFg7P7vN6lW9qgMMOl7U-100" value="&lt;font style=&quot;font-size:8px;font-family:Calibri;color:#000000;direction:ltr;letter-spacing:0px;line-height:120%;opacity:1&quot;&gt;Sediment&lt;br/&gt;10&amp;quot;&lt;br/&gt;5 Micron&lt;br/&gt;&lt;/font&gt;" style="text;vsdxID=5;fillColor=none;gradientColor=none;strokeColor=none;labelBackgroundColor=none;rounded=0;html=1;whiteSpace=wrap;verticalAlign=middle;align=center;;html=1;" parent="JFg7P7vN6lW9qgMMOl7U-99" vertex="1">
          <mxGeometry x="-21.17" y="54.51" width="67.73" height="41.77" as="geometry" />
        </mxCell>
        <mxCell id="JFg7P7vN6lW9qgMMOl7U-101" style="vsdxID=7;fillColor=#FFFFFF;gradientColor=none;shape=stencil(nZLNDsIgEISfZo8auptG77W+R5PSQkRoKP69fSFELURr7G0Gvp1kFoCqUTQDB2Sjs+bEb7J1AugAiFILbqXzCqgGqjpjeW/NRbfRD00ggzqba0i4xzkWJpA95u4YQSX1DCzYavTpP8Kr0QT04t2wk0rFBb3uv9XfYJmE7nfbcqHYD3o5u8B/snM6aZi18yJ/b38U/wrVEw==);strokeColor=#000000;labelBackgroundColor=none;rounded=0;html=1;whiteSpace=wrap;" parent="JFg7P7vN6lW9qgMMOl7U-98" vertex="1">
          <mxGeometry x="292" y="190" width="25" height="50" as="geometry" />
        </mxCell>
        <mxCell id="JFg7P7vN6lW9qgMMOl7U-102" value="&lt;font style=&quot;font-size:8px;font-family:Calibri;color:#000000;direction:ltr;letter-spacing:0px;line-height:120%;opacity:1&quot;&gt;Carbon&lt;br/&gt;10&amp;quot;&lt;br/&gt;10 Micron&lt;br/&gt;&lt;/font&gt;" style="text;vsdxID=7;fillColor=none;gradientColor=none;strokeColor=none;labelBackgroundColor=none;rounded=0;html=1;whiteSpace=wrap;verticalAlign=middle;align=center;;html=1;" parent="JFg7P7vN6lW9qgMMOl7U-101" vertex="1">
          <mxGeometry x="-21.17" y="54.51" width="67.73" height="41.77" as="geometry" />
        </mxCell>
        <mxCell id="JFg7P7vN6lW9qgMMOl7U-103" style="vsdxID=22;fillColor=#FFFFFF;gradientColor=none;shape=stencil(vVPJDsIgEP0ajhgWG/Xs8h9EaUvE0kxR699LQ9QOsSSa6G2WN9ubGSLXXa1aTQTrPLijvpqDr4ncECFMU2swPkhEbolclw50Be7cHKLeqgE5SCd3GTL0MY4NEYLdolZEdReRCvbBBT3yMcDYRyLO3qZiPVW96Sg4r7xxDapqFVSahjK0tKpCru6qdTsy868b+19bmFlRoMIrOYZa00wugXM2DU1pzoIXuRYwifPljM8xjyNTdqSfcBmE18mWxtp48U//1D3TpMciQ0+RO36cNoF+sCA2OVUyURDSpw2m+PByewc=);strokeColor=#000000;labelBackgroundColor=none;rounded=0;html=1;whiteSpace=wrap;" parent="JFg7P7vN6lW9qgMMOl7U-98" vertex="1">
          <mxGeometry x="203" y="349" width="50" height="50" as="geometry" />
        </mxCell>
        <mxCell id="JFg7P7vN6lW9qgMMOl7U-104" value="&lt;font style=&quot;font-size:8px;font-family:Calibri;color:#000000;direction:ltr;letter-spacing:0px;line-height:120%;opacity:1&quot;&gt;½ HP &lt;br/&gt;Motor&lt;br/&gt;&lt;/font&gt;" style="text;vsdxID=22;fillColor=none;gradientColor=none;strokeColor=none;labelBackgroundColor=none;rounded=0;html=1;whiteSpace=wrap;verticalAlign=middle;align=center;;html=1;" parent="JFg7P7vN6lW9qgMMOl7U-103" vertex="1">
          <mxGeometry x="-8.47" y="56.35" width="67.73" height="31.61" as="geometry" />
        </mxCell>
        <mxCell id="JFg7P7vN6lW9qgMMOl7U-105" style="vsdxID=28;rotation=90;fillColor=#FFFFFF;gradientColor=none;shape=stencil(nZPbDoMgDEC/hleDNM7t2bn/MBEnGQOD7vb3gzS7CBGDby09HKANBKqxbwZOGB0noy/8IdqpJ3AkjAnVcyMmGxGoCVSdNvxs9E21mA+NI1101XdneOI+6nYw+sIsp5ifEJVC/aGf4iY4gm4EveNt8HtjJ6TEFn3rSw3YZwAzb1ks3+CQZ7syQq+oWZKapaiLSN9C9Zyeq0M6Se2NZeXaEXXAxgbuDdsG/gewS/h5oH4D);strokeColor=#000000;labelBackgroundColor=none;rounded=0;html=1;whiteSpace=wrap;" parent="JFg7P7vN6lW9qgMMOl7U-98" vertex="1">
          <mxGeometry x="356" y="380" width="114" height="26" as="geometry" />
        </mxCell>
        <mxCell id="JFg7P7vN6lW9qgMMOl7U-106" style="vsdxID=29;rotation=90;fillColor=#FFFFFF;gradientColor=none;shape=stencil(nZPbDoMgDEC/hleDNM7t2bn/MBEnGQOD7vb3gzS7CBGDby09HKANBKqxbwZOGB0noy/8IdqpJ3AkjAnVcyMmGxGoCVSdNvxs9E21mA+NI1101XdneOI+6nYw+sIsp5ifEJVC/aGf4iY4gm4EveNt8HtjJ6TEFn3rSw3YZwAzb1ks3+CQZ7syQq+oWZKapaiLSN9C9Zyeq0M6Se2NZeXaEXXAxgbuDdsG/gewS/h5oH4D);strokeColor=#000000;labelBackgroundColor=none;rounded=0;html=1;whiteSpace=wrap;" parent="JFg7P7vN6lW9qgMMOl7U-98" vertex="1">
          <mxGeometry x="444" y="380" width="114" height="26" as="geometry" />
        </mxCell>
        <mxCell id="JFg7P7vN6lW9qgMMOl7U-107" style="vsdxID=30;rotation=90;fillColor=#FFFFFF;gradientColor=none;shape=stencil(nZPbDoMgDEC/hleDNM7t2bn/MBEnGQOD7vb3gzS7CBGDby09HKANBKqxbwZOGB0noy/8IdqpJ3AkjAnVcyMmGxGoCVSdNvxs9E21mA+NI1101XdneOI+6nYw+sIsp5ifEJVC/aGf4iY4gm4EveNt8HtjJ6TEFn3rSw3YZwAzb1ks3+CQZ7syQq+oWZKapaiLSN9C9Zyeq0M6Se2NZeXaEXXAxgbuDdsG/gewS/h5oH4D);strokeColor=#000000;labelBackgroundColor=none;rounded=0;html=1;whiteSpace=wrap;" parent="JFg7P7vN6lW9qgMMOl7U-98" vertex="1">
          <mxGeometry x="399" y="380" width="114" height="26" as="geometry" />
        </mxCell>
        <mxCell id="JFg7P7vN6lW9qgMMOl7U-108" style="vsdxID=73;rotation=270;fillColor=#FFFFFF;gradientColor=none;shape=stencil(UzV2Ls5ILEhVNTIoLinKz04tz0wpyVA1dlE1MsrMy0gtyiwBslSNXVWNndPyi1LTi/JL81Ig/IJEkEoQKze/DGRCBUSfpQFIi5FBJYRrbgrmukGU5mTmISklV6URHpWGqEoNiFaJz1BSrCdfLb4AQAtVmFZi1OIzlgInoCoFMhAJIi0zJweSnpDl0RMQUAiS+IxdAQ==);strokeColor=#000000;labelBackgroundColor=none;rounded=0;html=1;whiteSpace=wrap;" parent="JFg7P7vN6lW9qgMMOl7U-98" vertex="1">
          <mxGeometry x="179" y="241" width="9" height="3" as="geometry" />
        </mxCell>
        <mxCell id="JFg7P7vN6lW9qgMMOl7U-109" value="&lt;font style=&quot;font-size:8px;font-family:Calibri;color:#000000;direction:ltr;letter-spacing:0px;line-height:120%;opacity:1&quot;&gt;Power Switch&lt;br/&gt;&lt;/font&gt;" style="text;vsdxID=73;rotation=359.95;fillColor=none;gradientColor=none;strokeColor=none;labelBackgroundColor=none;rounded=0;html=1;whiteSpace=wrap;verticalAlign=middle;align=center;;html=1;" parent="JFg7P7vN6lW9qgMMOl7U-108" vertex="1">
          <mxGeometry x="-26" y="14" width="67.73" height="21.45" as="geometry" />
        </mxCell>
      </root>
    </mxGraphModel>
  </diagram>
</mxfile>
